<svg xmlns="http://www.w3.org/2000/svg" viewBox="0 0 64 64" id="smiley"><path fill="#ffcc4d" d="M60.89 32c0 16.81-13.63 30.44-30.44 30.44-7.88 0-15.07-3-20.47-7.91A30.302 30.302 0 0 1 0 32C0 15.19 13.63 1.56 30.44 1.56c8.92 0 16.94 3.83 22.51 9.95.01.01.02.02.03.02 4.91 5.4 7.91 12.59 7.91 20.47z"></path><path fill="#2e435a" d="M18.67 33.5c-.81 0-1.47-.66-1.47-1.47 0-2-1.63-3.63-3.63-3.63s-3.63 1.63-3.63 3.63c0 .81-.66 1.47-1.47 1.47-.81 0-1.47-.66-1.47-1.47 0-3.63 2.95-6.58 6.57-6.58 3.63 0 6.58 2.95 6.58 6.58a1.48 1.48 0 0 1-1.48 1.47zm33.76 0c-.81 0-1.47-.66-1.47-1.47 0-2-1.63-3.63-3.63-3.63s-3.63 1.63-3.63 3.63c0 .81-.66 1.47-1.47 1.47-.81 0-1.47-.66-1.47-1.47 0-3.63 2.95-6.58 6.58-6.58s6.58 2.95 6.58 6.58c-.02.82-.68 1.47-1.49 1.47zM44 40.61c-.48 3.22-2.14 6.07-4.54 8.12-2.4 2.05-5.56 3.29-9.01 3.29s-6.6-1.24-9.01-3.29c-2.4-2.05-4.06-4.9-4.54-8.12-.15-1.02.67-1.93 1.7-1.93h23.7c1.03 0 1.85.91 1.7 1.93z"></path><path fill="#fff" d="M37.5 42.46H23.4c-1.86 0-3.37-1.51-3.37-3.37v-.41h20.85v.41a3.387 3.387 0 0 1-3.38 3.37z"></path><path fill="#d3333f" d="M39.45 48.73c-2.4 2.05-5.56 3.29-9.01 3.29s-6.6-1.24-9.01-3.29c2.11-2.06 5.36-3.38 9.01-3.38 3.65 0 6.91 1.32 9.01 3.38z"></path><path fill="#59cbef" d="M52.76 19.06c-.05 3.1 2.43 5.65 5.54 5.7 3.1.05 5.65-2.43 5.7-5.54.03-2.19-2.7-7.88-4.3-11.01-.48-.94-1.82-.96-2.32-.03-1.69 3.08-4.58 8.68-4.62 10.88zM0 43.63a4.565 4.565 0 0 0 4.51 4.64c2.53.04 4.61-1.98 4.64-4.51.03-1.79-2.2-6.42-3.5-8.97-.39-.77-1.48-.78-1.89-.03C2.38 37.28.03 41.84 0 43.63zM44.67 11.15a3.594 3.594 0 0 0 3.54 3.64c1.98.03 3.61-1.56 3.64-3.54.02-1.4-1.72-5.03-2.75-7.04a.837.837 0 0 0-1.48-.02c-1.08 1.98-2.93 5.56-2.95 6.96z"></path></svg>